OpenSim_Sub01_CSStiffKnee_GRF.mot
version=1
nRows=34
nColumns=19
inDegrees=no
endheader
time	lFx	lFy	lFz	lCOPx	lCOPy	lCOPz	rFx	rFy	rFz	rCOPx	rCOPy	rCOPz	lMx	lMy	lMz	rMx	rMy	rMz
26.90000000	-1.35607574	-0.24369263	-8.49847095	0.00000147	0	-0.00000131	-33.63865052	640.81603286	-36.92666850	1.05666562	0	-0.43759637	0	-0.00000944	0	0	-4.72166379	0
26.91000000	-1.63976138	-0.33378627	-8.36924203	0.00000180	0	-0.00000156	-34.59142926	641.38264789	-36.37402339	1.05321278	0	-0.43718684	0	-0.00001463	0	0	-4.45966646	-0.00000000
26.92000000	-1.91506069	-0.35726308	-8.17594557	0.00000106	0	-0.00000092	-35.15716277	639.99769297	-36.47637548	1.04968133	0	-0.43652615	0	-0.00000931	0	0	-4.17219307	0
26.93000000	-2.17015816	-0.33960382	-7.90868876	0.00000038	0	-0.00000033	-35.03589709	637.21042965	-37.09022182	1.04586071	0	-0.43571157	0	-0.00000365	0	0	-3.91760831	0
26.94000000	-2.43311602	-0.31801779	-7.69236796	0.00000003	0	-0.00000002	-34.22981952	633.46923066	-38.04213740	1.04162791	0	-0.43493098	0	-0.00000049	0	0	-3.70466577	-0.00000000
26.95000000	-2.74124139	-0.35236274	-7.54429947	-0.00000008	0	0.00000007	-32.89000648	629.28812867	-39.08964101	1.03697940	0	-0.43435427	0	0.00000057	0	0	-3.47130928	-0.00000000
26.96000000	-3.08789324	-0.47011211	-7.43002064	-0.00000007	0	0.00000006	-31.16195906	625.31144338	-39.76169498	1.03191638	0	-0.43400770	0	0.00000059	0	0	-3.21193437	0.00000000
26.97000000	-3.44626900	-0.55801484	-7.32963560	-0.00000004	0	0.00000003	-28.92710472	621.95989545	-39.80038923	1.02634725	0	-0.43382916	0	0.00000033	0	0	-2.92400286	0
26.98000000	-3.76857952	-0.57306915	-7.24698137	-0.00000001	0	0.00000001	-26.28573395	619.26883404	-39.40085249	1.02036410	0	-0.43379053	0	0.00000011	0	0	-2.55137645	-0.00000000
26.99000000	-4.03430978	-0.52817025	-7.18401429	0.00000000	0	-0.00000000	-23.54015217	616.98261155	-38.85132206	1.01418731	0	-0.43387285	0	0.00000000	0	0	-2.14454034	-0.00000000
27	-4.24222732	-0.45311112	-7.18246571	0.00000000	0	-0.00000000	-20.85752457	614.74362078	-38.47442920	1.00794310	0	-0.43405995	0	-0.00000003	0	0	-1.78448277	-0.00000000
27.01000000	-4.41424214	-0.31291260	-7.29125726	0.00000000	0	-0.00000000	-18.09937124	612.28594665	-38.36336397	1.00145262	0	-0.43439823	0	-0.00000004	0	0	-1.42728623	-0.00000000
27.02000000	-4.53747151	-0.14428315	-7.47560874	0.00000000	0	-0.00000000	-15.22414824	610.24115577	-38.37085140	0.99465534	0	-0.43485991	0	-0.00000004	0	0	-1.08443879	0.00000000
27.03000000	-4.53981081	-0.00240810	-7.70015635	0.00000001	0	-0.00000000	-12.39675946	609.94393978	-38.19573625	0.98762243	0	-0.43542694	0	-0.00000003	0	0	-0.81777478	0
27.04000000	-4.41768600	-0.03842053	-7.99099757	0.00000000	0	-0.00000000	-9.72968198	612.44357021	-37.43971246	0.98047556	0	-0.43606341	0	0.00000001	0	0	-0.54953139	0
27.05000000	-4.22129966	-0.19637335	-8.30217414	-0.00000002	0	0.00000001	-7.28804625	617.79979840	-35.99785765	0.97330321	0	-0.43670064	0	0.00000013	0	0	-0.22569038	-0.00000000
27.06000000	-3.98064458	-0.30975515	-8.62688021	-0.00000005	0	0.00000003	-5.02112368	625.04619126	-34.01940579	0.96621680	0	-0.43728404	0	0.00000038	0	0	0.10023995	0
27.07000000	-3.72201865	-0.27254740	-8.95557029	-0.00000010	0	0.00000006	-2.89195477	632.57022930	-31.82115098	0.95928066	0	-0.43779472	0	0.00000065	0	0	0.41152081	-0.00000000
27.08000000	-3.44394252	-0.06295439	-9.27156012	-0.00000011	0	0.00000007	-0.74220646	639.04116978	-29.79170206	0.95248412	0	-0.43822357	0	0.00000055	0	0	0.72661677	0
27.09000000	-3.13960244	0.08362057	-9.66517186	0.00000004	0	-0.00000003	1.60700941	643.56035315	-28.19468736	0.94570288	0	-0.43858804	0	-0.00000077	0	0	1.00411321	0
27.10000000	-2.80101219	0.06153173	-10.13038514	0.00000054	0	-0.00000034	4.35844413	645.81023815	-27.23525606	0.93889663	0	-0.43889184	0	-0.00000444	0	0	1.19144294	0
27.11000000	-2.42396341	-0.04017895	-10.57768289	0.00000152	0	-0.00000092	7.47560140	646.19560657	-27.20633596	0.93215020	0	-0.43913135	0	-0.00001068	0	0	1.30039886	0.00000000
27.12000000	-2.03455790	-0.12930666	-10.94946783	0.00000258	0	-0.00000154	10.69100987	645.38401372	-28.07529986	0.92550485	0	-0.43928978	0	-0.00001583	0	0	1.33252028	0.00000000
27.13000000	-1.66105653	-0.17681034	-11.29210888	0.00000213	0	-0.00000122	13.72731883	643.75249698	-29.43034297	0.91879065	0	-0.43934128	0	-0.00000793	0	0	1.33911749	0
27.14000000	-1.31070514	-0.11011825	-11.60249979	-0.00000325	0	0.00000211	16.54141477	641.27159032	-30.96733599	0.91183786	0	-0.43936027	0	0.00003577	0	0	1.40828874	0
27.15000000	-0.96952126	0.04972582	-11.84839754	-0.00001802	0	0.00001109	19.19858120	637.97533325	-32.42857807	0.90462634	0	-0.43938957	0	0.00013947	0	0	1.52494471	0
27.16000000	-0.63859623	0.23095434	-11.97053359	-0.00004282	0	0.00002592	21.81014653	634.14013462	-33.58250375	0.89722443	0	-0.43941965	0	0.00029101	0	0	1.65209465	-0.00000000
27.17000000	-0.36122698	0.45179527	-11.97434328	-0.00006264	0	0.00003721	24.57068100	630.14621917	-34.39987187	0.88982909	0	-0.43944227	0	0.00036129	0	0	1.80551794	0
27.18000000	-0.16165483	0.71681981	-11.89522400	-0.00002924	0	0.00001554	27.64671891	626.33544824	-34.97413075	0.88251492	0	-0.43946740	0	0.00000167	0	0	2.00581590	0
27.19000000	-0.03477826	0.88370343	-11.80068525	0.00014807	0	-0.00009354	31.17536031	622.86323014	-35.32432754	0.87528382	0	-0.43952652	0	-0.00136484	0	0	2.21845010	0.00000000
27.20000000	0.02297049	0.80947877	-11.68218467	0.00056379	0	-0.00034506	35.14909079	619.78045341	-35.50814458	0.86811497	0	-0.43963589	0	-0.00418122	0	0	2.44048582	0
27.21000000	0.02045793	0.58041986	-11.48375638	0.00116309	0	-0.00070080	39.53342466	617.13143091	-35.56038483	0.86111452	0	-0.43981831	0	-0.00761444	0	0	2.66814450	0
27.22000000	-0.00411272	0.36658312	-11.23021915	0.00141994	0	-0.00083521	44.26303922	614.97097620	-35.49376254	0.85428689	0	-0.44005561	0	-0.00743686	0	0	2.86304144	-0.00000000
27.23000000	0.00763916	0.22249464	-10.91474918	-0.00006692	0	0.00010256	49.41379511	613.15924687	-35.45752363	0.84742185	0	-0.44034339	0	0.00612474	0	0	3.00942017	0.00000000
